{
  "accessors": [
    {
      "bufferView": 3,
      "componentType": 5126,
      "count": 291,
      "max": [
        0.20955000817775726,
        0.15240071713924408,
        0.1333555430173874
      ],
      "min": [
        -0.20955000817775726,
        -0.15241442620754242,
        -0.13335026800632477
      ],
      "type": "VEC3"
    },
    {
      "bufferView": 3,
      "byteOffset": 3492,
      "componentType": 5126,
      "count": 291,
      "max": [
        1.0,
        1.0,
        1.0
      ],
      "min": [
        -1.0,
        -1.0,
        -1.0
      ],
      "type": "VEC3"
    },
    {
      "bufferView": 2,
      "componentType": 5126,
      "count": 291,
      "max": [
        0.9942619800567627,
        0.9898480176925659
      ],
      "min": [
        0.012524999678134918,
        0.12005698680877686
      ],
      "type": "VEC2"
    },
    {
      "bufferView": 1,
      "componentType": 5125,
      "count": 750,
      "type": "SCALAR"
    },
    {
      "bufferView": 3,
      "byteOffset": 6984,
      "componentType": 5126,
      "count": 30,
      "max": [
        0.10194350779056549,
        0.11088363081216812,
        0.13856637477874756
      ],
      "min": [
        -0.17418839037418365,
        -0.08467207103967667,
        0.11429999768733978
      ],
      "type": "VEC3"
    },
    {
      "bufferView": 3,
      "byteOffset": 7344,
      "componentType": 5126,
      "count": 30,
      "max": [
        0.19309605658054352,
        0.24379311501979828,
        0.9977599382400513
      ],
      "min": [
        -0.21879355609416962,
        -0.24379180371761322,
        0.9669337272644043
      ],
      "type": "VEC3"
    },
    {
      "bufferView": 2,
      "byteOffset": 2328,
      "componentType": 5126,
      "count": 30,
      "max": [
        0.9718130230903625,
        0.9015960097312927
      ],
      "min": [
        0.6662060022354126,
        0.0679749846458435
      ],
      "type": "VEC2"
    },
    {
      "bufferView": 1,
      "byteOffset": 3000,
      "componentType": 5125,
      "count": 120,
      "type": "SCALAR"
    },
    {
      "bufferView": 3,
      "byteOffset": 7704,
      "componentType": 5126,
      "count": 30,
      "max": [
        0.10194350779056549,
        0.11088363081216812,
        0.13856637477874756
      ],
      "min": [
        -0.17418839037418365,
        -0.08467207103967667,
        0.11429999768733978
      ],
      "type": "VEC3"
    },
    {
      "bufferView": 3,
      "byteOffset": 8064,
      "componentType": 5126,
      "count": 30,
      "max": [
        0.19309605658054352,
        0.24379311501979828,
        0.9977599382400513
      ],
      "min": [
        -0.21879355609416962,
        -0.24379180371761322,
        0.9669337272644043
      ],
      "type": "VEC3"
    },
    {
      "bufferView": 2,
      "byteOffset": 2568,
      "componentType": 5126,
      "count": 30,
      "max": [
        0.3191629946231842,
        0.9008439779281616
      ],
      "min": [
        0.011862000450491905,
        0.06825697422027588
      ],
      "type": "VEC2"
    },
    {
      "bufferView": 1,
      "byteOffset": 3480,
      "componentType": 5125,
      "count": 120,
      "type": "SCALAR"
    },
    {
      "bufferView": 5,
      "componentType": 5126,
      "count": 2,
      "max": [
        1.0,
        0.0,
        0.0,
        0.0,
        0.0,
        1.0,
        3.714033312007814e-07,
        0.0,
        0.0,
        0.0,
        1.0,
        0.0,
        0.0,
        0.0,
        0.0,
        1.0
      ],
      "min": [
        1.0,
        0.0,
        0.0,
        0.0,
        0.0,
        1.0,
        0.0,
        0.0,
        0.0,
        -3.5762786865234375e-07,
        1.0,
        0.0,
        0.0,
        0.0,
        0.0,
        1.0
      ],
      "type": "MAT4"
    },
    {
      "bufferView": 5,
      "byteOffset": 128,
      "componentType": 5126,
      "count": 3,
      "max": [
        1.0,
        0.0,
        0.0,
        0.0,
        0.0,
        1.0,
        3.714033312007814e-07,
        0.0,
        0.0,
        0.0,
        1.0,
        0.0,
        0.0,
        0.0,
        0.0,
        1.0
      ],
      "min": [
        1.0,
        0.0,
        0.0,
        0.0,
        0.0,
        1.0,
        0.0,
        0.0,
        0.0,
        -3.5762786865234375e-07,
        1.0,
        0.0,
        0.0,
        0.0,
        0.0,
        1.0
      ],
      "type": "MAT4"
    },
    {
      "bufferView": 0,
      "componentType": 5123,
      "count": 291,
      "type": "VEC4"
    },
    {
      "bufferView": 4,
      "componentType": 5126,
      "count": 291,
      "max": [
        1.0,
        0.0,
        0.0,
        0.0
      ],
      "min": [
        1.0,
        0.0,
        0.0,
        0.0
      ],
      "type": "VEC4"
    },
    {
      "bufferView": 0,
      "byteOffset": 2328,
      "componentType": 5123,
      "count": 30,
      "type": "VEC4"
    },
    {
      "bufferView": 4,
      "byteOffset": 4656,
      "componentType": 5126,
      "count": 30,
      "max": [
        1.0,
        0.0,
        0.0,
        0.0
      ],
      "min": [
        1.0,
        0.0,
        0.0,
        0.0
      ],
      "type": "VEC4"
    },
    {
      "bufferView": 0,
      "byteOffset": 2568,
      "componentType": 5123,
      "count": 30,
      "type": "VEC4"
    },
    {
      "bufferView": 4,
      "byteOffset": 5136,
      "componentType": 5126,
      "count": 30,
      "max": [
        1.0,
        0.0,
        0.0,
        0.0
      ],
      "min": [
        1.0,
        0.0,
        0.0,
        0.0
      ],
      "type": "VEC4"
    }
  ],
  "asset": {
    "extras": {
      "author": "Professor E12^2 (https://sketchfab.com/profanity2009)",
      "license": "CC-BY-4.0 (http://creativecommons.org/licenses/by/4.0/)",
      "source": "https://sketchfab.com/3d-models/tv-ef8ba8e14e314e1dbce36e73be47bcad",
      "title": "TV"
    },
    "generator": "Sketchfab-16.64.0",
    "version": "2.0"
  },
  "bufferViews": [
    {
      "buffer": 0,
      "byteLength": 2808,
      "byteStride": 8,
      "name": "shortBufferViews",
      "target": 34962
    },
    {
      "buffer": 0,
      "byteLength": 3960,
      "byteOffset": 2808,
      "name": "floatBufferViews",
      "target": 34963
    },
    {
      "buffer": 0,
      "byteLength": 2808,
      "byteOffset": 6768,
      "byteStride": 8,
      "name": "floatBufferViews",
      "target": 34962
    },
    {
      "buffer": 0,
      "byteLength": 8424,
      "byteOffset": 9576,
      "byteStride": 12,
      "name": "floatBufferViews",
      "target": 34962
    },
    {
      "buffer": 0,
      "byteLength": 5616,
      "byteOffset": 18000,
      "byteStride": 16,
      "name": "floatBufferViews",
      "target": 34962
    },
    {
      "buffer": 0,
      "byteLength": 320,
      "byteOffset": 23616,
      "name": "floatBufferViews"
    }
  ],
  "buffers": [
    {
      "byteLength": 23936,
      "uri": "scene.bin"
    }
  ],
  "extensionsUsed": [
    "KHR_materials_specular"
  ],
  "images": [
    {
      "uri": "textures/tv_monitor01_baseColor.png"
    },
    {
      "uri": "textures/tv_monitor01_specularf0.png"
    },
    {
      "uri": "textures/tv_monitor01_screen_baseColor.png"
    }
  ],
  "materials": [
    {
      "doubleSided": true,
      "extensions": {
        "KHR_materials_specular": {
          "specularColorFactor": [
            1.0,
            1.0,
            1.0
          ],
          "specularFactor": 1.0,
          "specularTexture": {
            "index": 1
          }
        }
      },
      "name": "tv_monitor01",
      "pbrMetallicRoughness": {
        "baseColorTexture": {
          "index": 0
        },
        "metallicFactor": 0.0,
        "roughnessFactor": 0.5
      }
    },
    {
      "alphaMode": "BLEND",
      "doubleSided": true,
      "extensions": {
        "KHR_materials_specular": {
          "specularColorFactor": [
            1.0,
            1.0,
            1.0
          ],
          "specularFactor": 1.0
        }
      },
      "name": "tv_monitor01_screen",
      "pbrMetallicRoughness": {
        "baseColorTexture": {
          "index": 2
        },
        "metallicFactor": 0.0,
        "roughnessFactor": 0.5
      }
    }
  ],
  "meshes": [
    {
      "name": "Object_0",
      "primitives": [
        {
          "attributes": {
            "JOINTS_0": 14,
            "NORMAL": 1,
            "POSITION": 0,
            "TEXCOORD_0": 2,
            "WEIGHTS_0": 15
          },
          "indices": 3,
          "material": 0,
          "mode": 4
        }
      ]
    },
    {
      "name": "Object_1",
      "primitives": [
        {
          "attributes": {
            "JOINTS_0": 16,
            "NORMAL": 5,
            "POSITION": 4,
            "TEXCOORD_0": 6,
            "WEIGHTS_0": 17
          },
          "indices": 7,
          "material": 1,
          "mode": 4
        }
      ]
    },
    {
      "name": "Object_2",
      "primitives": [
        {
          "attributes": {
            "JOINTS_0": 18,
            "NORMAL": 9,
            "POSITION": 8,
            "TEXCOORD_0": 10,
            "WEIGHTS_0": 19
          },
          "indices": 11,
          "material": 1,
          "mode": 4
        }
      ]
    }
  ],
  "nodes": [
    {
      "children": [
        1
      ],
      "matrix": [
        1.0,
        0.0,
        0.0,
        0.0,
        0.0,
        2.220446049250313e-16,
        -1.0,
        0.0,
        0.0,
        1.0,
        2.220446049250313e-16,
        0.0,
        0.0,
        0.0,
        0.0,
        1.0
      ],
      "name": "Sketchfab_model"
    },
    {
      "children": [
        2
      ],
      "name": "root"
    },
    {
      "children": [
        3,
        9
      ],
      "matrix": [
        1.0,
        0.0,
        0.0,
        0.0,
        0.0,
        2.220446049250313e-16,
        1.0,
        0.0,
        0.0,
        -1.0,
        2.220446049250313e-16,
        0.0,
        0.0,
        0.0,
        0.0,
        1.0
      ],
      "name": "GLTF_SceneRootNode"
    },
    {
      "children": [
        4
      ],
      "name": "tv_monitor01_ARM_2"
    },
    {
      "children": [
        5,
        7,
        6
      ],
      "name": "GLTF_created_0"
    },
    {
      "children": [
        8
      ],
      "name": "GLTF_created_0_rootJoint"
    },
    {
      "name": "tv_monitor01_reference.smd_1"
    },
    {
      "mesh": 0,
      "name": "Object_7",
      "skin": 0
    },
    {
      "name": "polymsh4_0",
      "rotation": [
        -1.8225779285785393e-07,
        0.0,
        0.0,
        1.0
      ]
    },
    {
      "children": [
        10
      ],
      "name": "tv_monitor01_screen_ARM_7"
    },
    {
      "children": [
        11,
        13,
        15,
        12,
        14
      ],
      "name": "GLTF_created_1"
    },
    {
      "children": [
        16,
        17
      ],
      "name": "GLTF_created_1_rootJoint"
    },
    {
      "name": "tv_monitor01_screen_off_reference.smd_5"
    },
    {
      "mesh": 1,
      "name": "Object_13",
      "skin": 1
    },
    {
      "name": "tv_monitor01_screen_reference.smd_6"
    },
    {
      "mesh": 2,
      "name": "Object_15",
      "skin": 1
    },
    {
      "name": "polymsh4_3",
      "rotation": [
        -1.8225779285785393e-07,
        0.0,
        0.0,
        1.0
      ]
    },
    {
      "name": "polymsh5_4",
      "rotation": [
        -1.8225779285785393e-07,
        0.0,
        0.0,
        1.0
      ]
    }
  ],
  "samplers": [
    {
      "magFilter": 9729,
      "minFilter": 9987,
      "wrapS": 10497,
      "wrapT": 10497
    }
  ],
  "scene": 0,
  "scenes": [
    {
      "name": "Sketchfab_Scene",
      "nodes": [
        0
      ]
    }
  ],
  "skins": [
    {
      "inverseBindMatrices": 12,
      "joints": [
        5,
        8
      ],
      "skeleton": 5
    },
    {
      "inverseBindMatrices": 13,
      "joints": [
        11,
        16,
        17
      ],
      "skeleton": 11
    }
  ],
  "textures": [
    {
      "sampler": 0,
      "source": 0
    },
    {
      "sampler": 0,
      "source": 1
    },
    {
      "sampler": 0,
      "source": 2
    }
  ]
}
