{
  "accessors": [
    {
      "bufferView": 2,
      "componentType": 5126,
      "count": 1774,
      "max": [
        1.3369990587234497,
        3.8964502811431885,
        7.2156171798706055
      ],
      "min": [
        -1.326662540435791,
        -3.9018659591674805,
        -0.31928443908691406
      ],
      "type": "VEC3"
    },
    {
      "bufferView": 2,
      "byteOffset": 21288,
      "componentType": 5126,
      "count": 1774,
      "max": [
        1.0,
        1.0,
        1.0
      ],
      "min": [
        -1.0,
        -1.0,
        -0.999907910823822
      ],
      "type": "VEC3"
    },
    {
      "bufferView": 1,
      "componentType": 5126,
      "count": 1774,
      "max": [
        0.9832867383956909,
        0.5710399150848389
      ],
      "min": [
        0.031474851071834564,
        0.005659759044647217
      ],
      "type": "VEC2"
    },
    {
      "bufferView": 0,
      "componentType": 5125,
      "count": 3264,
      "type": "SCALAR"
    },
    {
      "bufferView": 2,
      "byteOffset": 42576,
      "componentType": 5126,
      "count": 117,
      "max": [
        1.238912582397461,
        2.5738539695739746,
        -0.03431415557861328
      ],
      "min": [
        -1.2285759449005127,
        -2.710641384124756,
        -0.41393280029296875
      ],
      "type": "VEC3"
    },
    {
      "bufferView": 2,
      "byteOffset": 43980,
      "componentType": 5126,
      "count": 117,
      "max": [
        0.9999986886978149,
        0.9328341484069824,
        0.8785836696624756
      ],
      "min": [
        -0.9999909400939941,
        -0.8997461795806885,
        -0.9551305174827576
      ],
      "type": "VEC3"
    },
    {
      "bufferView": 1,
      "byteOffset": 14192,
      "componentType": 5126,
      "count": 117,
      "max": [
        0.62503582239151,
        0.185665100812912
      ],
      "min": [
        0.29802000522613525,
        0.13080742955207825
      ],
      "type": "VEC2"
    },
    {
      "bufferView": 0,
      "byteOffset": 13056,
      "componentType": 5125,
      "count": 456,
      "type": "SCALAR"
    },
    {
      "bufferView": 2,
      "byteOffset": 45384,
      "componentType": 5126,
      "count": 723,
      "max": [
        0.9843742847442627,
        1.418127417564392,
        6.769461154937744
      ],
      "min": [
        -1.0158337354660034,
        -2.4577572345733643,
        2.449833393096924
      ],
      "type": "VEC3"
    },
    {
      "bufferView": 2,
      "byteOffset": 54060,
      "componentType": 5126,
      "count": 723,
      "max": [
        0.9995092749595642,
        0.9994608163833618,
        0.9470282793045044
      ],
      "min": [
        -0.9875879287719727,
        -0.999937891960144,
        -0.46626195311546326
      ],
      "type": "VEC3"
    },
    {
      "bufferView": 1,
      "byteOffset": 15128,
      "componentType": 5126,
      "count": 723,
      "max": [
        0.9392199516296387,
        0.961401104927063
      ],
      "min": [
        0.023161835968494415,
        0.02116347849369049
      ],
      "type": "VEC2"
    },
    {
      "bufferView": 0,
      "byteOffset": 14880,
      "componentType": 5125,
      "count": 2370,
      "type": "SCALAR"
    },
    {
      "bufferView": 2,
      "byteOffset": 62736,
      "componentType": 5126,
      "count": 1843,
      "max": [
        1.310714840888977,
        3.8964502811431885,
        7.225917816162109
      ],
      "min": [
        -1.3529467582702637,
        -3.9018659591674805,
        -0.31928443908691406
      ],
      "type": "VEC3"
    },
    {
      "bufferView": 2,
      "byteOffset": 84852,
      "componentType": 5126,
      "count": 1843,
      "max": [
        1.0,
        1.0,
        1.0
      ],
      "min": [
        -1.0,
        -1.0,
        -0.999907910823822
      ],
      "type": "VEC3"
    },
    {
      "bufferView": 1,
      "byteOffset": 20912,
      "componentType": 5126,
      "count": 1843,
      "max": [
        0.9785351753234863,
        0.5710399150848389
      ],
      "min": [
        0.031474851071834564,
        0.016891777515411377
      ],
      "type": "VEC2"
    },
    {
      "bufferView": 0,
      "byteOffset": 24360,
      "componentType": 5125,
      "count": 3261,
      "type": "SCALAR"
    },
    {
      "bufferView": 2,
      "byteOffset": 106968,
      "componentType": 5126,
      "count": 117,
      "max": [
        1.2126283645629883,
        2.5738539695739746,
        -0.03431415557861328
      ],
      "min": [
        -1.2548601627349854,
        -2.710641384124756,
        -0.41393280029296875
      ],
      "type": "VEC3"
    },
    {
      "bufferView": 2,
      "byteOffset": 108372,
      "componentType": 5126,
      "count": 117,
      "max": [
        0.9999986886978149,
        0.9328345656394958,
        0.8785834312438965
      ],
      "min": [
        -0.9999909400939941,
        -0.8997462391853333,
        -0.9551304578781128
      ],
      "type": "VEC3"
    },
    {
      "bufferView": 1,
      "byteOffset": 35656,
      "componentType": 5126,
      "count": 117,
      "max": [
        0.6773310899734497,
        0.16627654433250427
      ],
      "min": [
        0.32258227467536926,
        0.10676661133766174
      ],
      "type": "VEC2"
    },
    {
      "bufferView": 0,
      "byteOffset": 37404,
      "componentType": 5125,
      "count": 456,
      "type": "SCALAR"
    },
    {
      "bufferView": 2,
      "byteOffset": 109776,
      "componentType": 5126,
      "count": 860,
      "max": [
        0.9481573700904846,
        2.7130277156829834,
        7.2156171798706055
      ],
      "min": [
        -0.9406646490097046,
        -2.511425018310547,
        2.4498324394226074
      ],
      "type": "VEC3"
    },
    {
      "bufferView": 2,
      "byteOffset": 120096,
      "componentType": 5126,
      "count": 860,
      "max": [
        0.9930243492126465,
        0.9998206496238708,
        0.9999043345451355
      ],
      "min": [
        -0.9999334216117859,
        -0.9998010993003845,
        -0.9940522313117981
      ],
      "type": "VEC3"
    },
    {
      "bufferView": 1,
      "byteOffset": 36592,
      "componentType": 5126,
      "count": 860,
      "max": [
        0.9128210544586182,
        0.961401104927063
      ],
      "min": [
        0.034983277320861816,
        0.016891926527023315
      ],
      "type": "VEC2"
    },
    {
      "bufferView": 0,
      "byteOffset": 39228,
      "componentType": 5125,
      "count": 2616,
      "type": "SCALAR"
    }
  ],
  "asset": {
    "extras": {
      "author": "Khoa Nguyen (https://sketchfab.com/ngdkh)",
      "license": "CC-BY-4.0 (http://creativecommons.org/licenses/by/4.0/)",
      "source": "https://sketchfab.com/3d-models/wardrobe-rack-6cf5500314b34485b88e72d9a53b4855",
      "title": "Wardrobe Rack"
    },
    "generator": "Sketchfab-16.64.0",
    "version": "2.0"
  },
  "bufferViews": [
    {
      "buffer": 0,
      "byteLength": 49692,
      "name": "floatBufferViews",
      "target": 34963
    },
    {
      "buffer": 0,
      "byteLength": 43472,
      "byteOffset": 49692,
      "byteStride": 8,
      "name": "floatBufferViews",
      "target": 34962
    },
    {
      "buffer": 0,
      "byteLength": 130416,
      "byteOffset": 93164,
      "byteStride": 12,
      "name": "floatBufferViews",
      "target": 34962
    }
  ],
  "buffers": [
    {
      "byteLength": 223580,
      "uri": "scene.bin"
    }
  ],
  "extensionsUsed": [
    "KHR_materials_specular"
  ],
  "images": [
    {
      "uri": "textures/rack_baseColor.png"
    }
  ],
  "materials": [
    {
      "doubleSided": true,
      "extensions": {
        "KHR_materials_specular": {
          "specularColorFactor": [
            1.0,
            1.0,
            1.0
          ],
          "specularFactor": 1.0
        }
      },
      "name": "rack",
      "pbrMetallicRoughness": {
        "baseColorTexture": {
          "index": 0
        },
        "metallicFactor": 0.510670731707317,
        "roughnessFactor": 0.0
      }
    },
    {
      "doubleSided": true,
      "name": "wheels",
      "pbrMetallicRoughness": {
        "baseColorFactor": [
          0.00124202,
          0.00124202,
          0.00124202,
          1.0
        ],
        "metallicFactor": 0.0
      }
    },
    {
      "doubleSided": true,
      "extensions": {
        "KHR_materials_specular": {
          "specularColorFactor": [
            1.0,
            1.0,
            1.0
          ],
          "specularFactor": 0.44359756097560976
        }
      },
      "name": "rack.001",
      "pbrMetallicRoughness": {
        "baseColorTexture": {
          "index": 0
        },
        "metallicFactor": 0.0,
        "roughnessFactor": 0.6417682926829269
      }
    }
  ],
  "meshes": [
    {
      "name": "rack 1_rack_0",
      "primitives": [
        {
          "attributes": {
            "NORMAL": 1,
            "POSITION": 0,
            "TEXCOORD_0": 2
          },
          "indices": 3,
          "material": 0,
          "mode": 4
        }
      ]
    },
    {
      "name": "rack 1_wheels_0",
      "primitives": [
        {
          "attributes": {
            "NORMAL": 5,
            "POSITION": 4,
            "TEXCOORD_0": 6
          },
          "indices": 7,
          "material": 1,
          "mode": 4
        }
      ]
    },
    {
      "name": "rack 1_rack.001_0",
      "primitives": [
        {
          "attributes": {
            "NORMAL": 9,
            "POSITION": 8,
            "TEXCOORD_0": 10
          },
          "indices": 11,
          "material": 2,
          "mode": 4
        }
      ]
    },
    {
      "name": "rack 2_rack_0",
      "primitives": [
        {
          "attributes": {
            "NORMAL": 13,
            "POSITION": 12,
            "TEXCOORD_0": 14
          },
          "indices": 15,
          "material": 0,
          "mode": 4
        }
      ]
    },
    {
      "name": "rack 2_wheels_0",
      "primitives": [
        {
          "attributes": {
            "NORMAL": 17,
            "POSITION": 16,
            "TEXCOORD_0": 18
          },
          "indices": 19,
          "material": 1,
          "mode": 4
        }
      ]
    },
    {
      "name": "rack 2_rack.001_0",
      "primitives": [
        {
          "attributes": {
            "NORMAL": 21,
            "POSITION": 20,
            "TEXCOORD_0": 22
          },
          "indices": 23,
          "material": 2,
          "mode": 4
        }
      ]
    }
  ],
  "nodes": [
    {
      "children": [
        1
      ],
      "matrix": [
        1.0,
        0.0,
        0.0,
        0.0,
        0.0,
        2.220446049250313e-16,
        -1.0,
        0.0,
        0.0,
        1.0,
        2.220446049250313e-16,
        0.0,
        0.0,
        0.0,
        0.0,
        1.0
      ],
      "name": "Sketchfab_model"
    },
    {
      "children": [
        2
      ],
      "matrix": [
        0.009999999776482582,
        0.0,
        0.0,
        0.0,
        0.0,
        0.0,
        0.009999999776482582,
        0.0,
        0.0,
        -0.009999999776482582,
        0.0,
        0.0,
        0.0,
        0.0,
        0.0,
        1.0
      ],
      "name": "181f54bea1cd49bf87d32be096726877.fbx"
    },
    {
      "children": [
        3,
        7
      ],
      "name": "RootNode"
    },
    {
      "children": [
        4,
        5,
        6
      ],
      "matrix": [
        100.0,
        2.837434068466827e-27,
        -4.4408907750116473e-14,
        0.0,
        -4.4408914526372005e-14,
        -5.205486276956247e-05,
        -100.00001525877552,
        0.0,
        -2.3116998825880113e-20,
        100.00001525877552,
        -5.205486276956247e-05,
        0.0,
        -211.10691833496094,
        0.0,
        0.0,
        1.0
      ],
      "name": "rack 1"
    },
    {
      "mesh": 0,
      "name": "rack 1_rack_0"
    },
    {
      "mesh": 1,
      "name": "rack 1_wheels_0"
    },
    {
      "mesh": 2,
      "name": "rack 1_rack.001_0"
    },
    {
      "children": [
        8,
        9,
        10
      ],
      "matrix": [
        -99.9999999999985,
        1.5099579909783651e-05,
        8.742277657347576e-06,
        0.0,
        8.742270651283237e-06,
        -5.523351552931312e-05,
        100.00001525877343,
        0.0,
        1.5099587042461626e-05,
        100.00001525877268,
        5.5233514197045285e-05,
        0.0,
        214.99667358398438,
        2.1175823681357508e-20,
        -6.700270236665215e-20,
        1.0
      ],
      "name": "rack 2"
    },
    {
      "mesh": 3,
      "name": "rack 2_rack_0"
    },
    {
      "mesh": 4,
      "name": "rack 2_wheels_0"
    },
    {
      "mesh": 5,
      "name": "rack 2_rack.001_0"
    }
  ],
  "samplers": [
    {
      "magFilter": 9729,
      "minFilter": 9987,
      "wrapS": 10497,
      "wrapT": 10497
    }
  ],
  "scene": 0,
  "scenes": [
    {
      "name": "Sketchfab_Scene",
      "nodes": [
        0
      ]
    }
  ],
  "textures": [
    {
      "sampler": 0,
      "source": 0
    }
  ]
}
