{
  "accessors": [
    {
      "bufferView": 2,
      "componentType": 5126,
      "count": 2653,
      "max": [
        1.25,
        0.5658379793167114,
        0.3797610104084015
      ],
      "min": [
        -1.25,
        -0.5658379793167114,
        -0.2786389887332916
      ],
      "type": "VEC3"
    },
    {
      "bufferView": 2,
      "byteOffset": 31836,
      "componentType": 5126,
      "count": 2653,
      "max": [
        1.0,
        1.0,
        1.0
      ],
      "min": [
        -0.9998936653137207,
        -1.0,
        -1.0
      ],
      "type": "VEC3"
    },
    {
      "bufferView": 1,
      "componentType": 5126,
      "count": 2653,
      "max": [
        0.9945619702339172,
        1.9969960451126099
      ],
      "min": [
        0.000387999985832721,
        1.0066020488739014
      ],
      "type": "VEC2"
    },
    {
      "bufferView": 0,
      "componentType": 5125,
      "count": 11043,
      "type": "SCALAR"
    },
    {
      "bufferView": 2,
      "byteOffset": 63672,
      "componentType": 5126,
      "count": 2136,
      "max": [
        0.8853819966316223,
        0.49977099895477295,
        -0.021990999579429626
      ],
      "min": [
        -1.010246992111206,
        -0.48065999150276184,
        -0.3797610104084015
      ],
      "type": "VEC3"
    },
    {
      "bufferView": 2,
      "byteOffset": 89304,
      "componentType": 5126,
      "count": 2136,
      "max": [
        0.9998691082000732,
        1.0,
        0.9999810457229614
      ],
      "min": [
        -0.9998695850372314,
        -1.0,
        -0.9994198083877563
      ],
      "type": "VEC3"
    },
    {
      "bufferView": 1,
      "byteOffset": 21224,
      "componentType": 5126,
      "count": 2136,
      "max": [
        0.9884899854660034,
        1.9970099925994873
      ],
      "min": [
        0.005828999914228916,
        1.0169399976730347
      ],
      "type": "VEC2"
    },
    {
      "bufferView": 0,
      "byteOffset": 44172,
      "componentType": 5125,
      "count": 6900,
      "type": "SCALAR"
    },
    {
      "bufferView": 2,
      "byteOffset": 114936,
      "componentType": 5126,
      "count": 82,
      "max": [
        0.9528290033340454,
        0.4588499963283539,
        0.3451809883117676
      ],
      "min": [
        -0.5620149970054626,
        -0.459199994802475,
        0.11652100086212158
      ],
      "type": "VEC3"
    },
    {
      "bufferView": 2,
      "byteOffset": 115920,
      "componentType": 5126,
      "count": 82,
      "max": [
        0.43107539415359497,
        0.8832294940948486,
        0.9080455303192139
      ],
      "min": [
        -0.4564799666404724,
        -0.19425168633460999,
        -0.6419418454170227
      ],
      "type": "VEC3"
    },
    {
      "bufferView": 1,
      "byteOffset": 38312,
      "componentType": 5126,
      "count": 82,
      "max": [
        0.25176799297332764,
        1.744711995124817
      ],
      "min": [
        0.23462800681591034,
        1.7278519868850708
      ],
      "type": "VEC2"
    },
    {
      "bufferView": 0,
      "byteOffset": 71772,
      "componentType": 5125,
      "count": 198,
      "type": "SCALAR"
    }
  ],
  "asset": {
    "extras": {
      "author": "DisneyCars (https://sketchfab.com/supercarmodels)",
      "license": "CC-BY-4.0 (http://creativecommons.org/licenses/by/4.0/)",
      "source": "https://sketchfab.com/3d-models/2003-bmw-m5-e39-ee681faa74b349148ad12f6dab644fe8",
      "title": "2003 BMW M5 (E39)"
    },
    "generator": "Sketchfab-16.59.0",
    "version": "2.0"
  },
  "bufferViews": [
    {
      "buffer": 0,
      "byteLength": 72564,
      "name": "floatBufferViews",
      "target": 34963
    },
    {
      "buffer": 0,
      "byteLength": 38968,
      "byteOffset": 72564,
      "byteStride": 8,
      "name": "floatBufferViews",
      "target": 34962
    },
    {
      "buffer": 0,
      "byteLength": 116904,
      "byteOffset": 111532,
      "byteStride": 12,
      "name": "floatBufferViews",
      "target": 34962
    }
  ],
  "buffers": [
    {
      "byteLength": 228436,
      "uri": "scene.bin"
    }
  ],
  "images": [
    {
      "uri": "textures/Material1_baseColor.jpeg"
    },
    {
      "uri": "textures/Material2_baseColor.jpeg"
    }
  ],
  "materials": [
    {
      "name": "Material1",
      "pbrMetallicRoughness": {
        "baseColorTexture": {
          "index": 0
        },
        "metallicFactor": 0.0,
        "roughnessFactor": 0.0
      }
    },
    {
      "doubleSided": true,
      "name": "Material2",
      "pbrMetallicRoughness": {
        "baseColorTexture": {
          "index": 1
        },
        "metallicFactor": 0.0,
        "roughnessFactor": 0.25342631527985715
      }
    },
    {
      "alphaMode": "BLEND",
      "doubleSided": true,
      "name": "Material3",
      "pbrMetallicRoughness": {
        "baseColorFactor": [
          0.0,
          0.0,
          0.0,
          0.4
        ],
        "metallicFactor": 0.0,
        "roughnessFactor": 0.0
      }
    }
  ],
  "meshes": [
    {
      "name": "Object_0",
      "primitives": [
        {
          "attributes": {
            "NORMAL": 1,
            "POSITION": 0,
            "TEXCOORD_0": 2
          },
          "indices": 3,
          "material": 0,
          "mode": 4
        }
      ]
    },
    {
      "name": "Object_1",
      "primitives": [
        {
          "attributes": {
            "NORMAL": 5,
            "POSITION": 4,
            "TEXCOORD_0": 6
          },
          "indices": 7,
          "material": 1,
          "mode": 4
        }
      ]
    },
    {
      "name": "Object_2",
      "primitives": [
        {
          "attributes": {
            "NORMAL": 9,
            "POSITION": 8,
            "TEXCOORD_0": 10
          },
          "indices": 11,
          "material": 2,
          "mode": 4
        }
      ]
    }
  ],
  "nodes": [
    {
      "children": [
        1
      ],
      "matrix": [
        1.0,
        0.0,
        0.0,
        0.0,
        0.0,
        2.220446049250313e-16,
        -1.0,
        0.0,
        0.0,
        1.0,
        2.220446049250313e-16,
        0.0,
        0.0,
        0.0,
        0.0,
        1.0
      ],
      "name": "Sketchfab_model"
    },
    {
      "children": [
        2,
        3,
        4
      ],
      "name": "9C6UYD1W6PY4LA7WUQ3GNCFZP.obj.cleaner.materialmerger.gles"
    },
    {
      "mesh": 0,
      "name": "Object_2"
    },
    {
      "mesh": 1,
      "name": "Object_3"
    },
    {
      "mesh": 2,
      "name": "Object_4"
    }
  ],
  "samplers": [
    {
      "magFilter": 9729,
      "minFilter": 9987,
      "wrapS": 10497,
      "wrapT": 10497
    }
  ],
  "scene": 0,
  "scenes": [
    {
      "name": "Sketchfab_Scene",
      "nodes": [
        0
      ]
    }
  ],
  "textures": [
    {
      "sampler": 0,
      "source": 0
    },
    {
      "sampler": 0,
      "source": 1
    }
  ]
}
