{
  "accessors": [
    {
      "bufferView": 2,
      "componentType": 5126,
      "count": 657,
      "max": [
        0.5222991704940796,
        0.7657718062400818,
        0.03600005805492401
      ],
      "min": [
        -0.386604368686676,
        -0.6704625487327576,
        -0.036000046879053116
      ],
      "type": "VEC3"
    },
    {
      "bufferView": 2,
      "byteOffset": 7884,
      "componentType": 5126,
      "count": 657,
      "max": [
        0.999997615814209,
        0.9999995231628418,
        1.0
      ],
      "min": [
        -0.999997615814209,
        -0.9999996423721313,
        -1.0
      ],
      "type": "VEC3"
    },
    {
      "bufferView": 1,
      "componentType": 5126,
      "count": 657,
      "max": [
        1.0,
        1.0
      ],
      "min": [
        0.0,
        0.0
      ],
      "type": "VEC2"
    },
    {
      "bufferView": 0,
      "componentType": 5125,
      "count": 3456,
      "type": "SCALAR"
    },
    {
      "bufferView": 2,
      "byteOffset": 15768,
      "componentType": 5126,
      "count": 120,
      "max": [
        0.14474743604660034,
        2.580709218978882,
        0.46649426221847534
      ],
      "min": [
        -1.4731075763702393,
        -0.8701094388961792,
        -1.1485514640808105
      ],
      "type": "VEC3"
    },
    {
      "bufferView": 2,
      "byteOffset": 17208,
      "componentType": 5126,
      "count": 120,
      "max": [
        0.9239344000816345,
        1.0,
        0.9239318370819092
      ],
      "min": [
        -0.9999406337738037,
        -1.0,
        -0.9239318370819092
      ],
      "type": "VEC3"
    },
    {
      "bufferView": 1,
      "byteOffset": 5256,
      "componentType": 5126,
      "count": 120,
      "max": [
        0.9762908816337585,
        0.9743831157684326
      ],
      "min": [
        0.02909313328564167,
        0.009590744972229004
      ],
      "type": "VEC2"
    },
    {
      "bufferView": 0,
      "byteOffset": 13824,
      "componentType": 5125,
      "count": 210,
      "type": "SCALAR"
    },
    {
      "bufferView": 2,
      "byteOffset": 18648,
      "componentType": 5126,
      "count": 40,
      "max": [
        -0.11379235982894897,
        2.328644275665283,
        0.21076363325119019
      ],
      "min": [
        -1.2173768281936646,
        2.191307544708252,
        -0.8928208947181702
      ],
      "type": "VEC3"
    },
    {
      "bufferView": 2,
      "byteOffset": 19128,
      "componentType": 5126,
      "count": 40,
      "max": [
        0.8881824016571045,
        1.0,
        0.8881824016571045
      ],
      "min": [
        -0.8881824016571045,
        0.27529454231262207,
        -0.8881824016571045
      ],
      "type": "VEC3"
    },
    {
      "bufferView": 1,
      "byteOffset": 6216,
      "componentType": 5126,
      "count": 40,
      "max": [
        0.7229388952255249,
        -0.1995995044708252
      ],
      "min": [
        0.10812848061323166,
        -1.0849380493164063
      ],
      "type": "VEC2"
    },
    {
      "bufferView": 0,
      "byteOffset": 14664,
      "componentType": 5125,
      "count": 66,
      "type": "SCALAR"
    },
    {
      "bufferView": 2,
      "byteOffset": 19608,
      "componentType": 5126,
      "count": 48,
      "max": [
        1.6353639364242554,
        1.0,
        1.0
      ],
      "min": [
        -0.18238282203674316,
        -1.0,
        -1.0
      ],
      "type": "VEC3"
    },
    {
      "bufferView": 2,
      "byteOffset": 20184,
      "componentType": 5126,
      "count": 48,
      "max": [
        1.0,
        1.0,
        1.0
      ],
      "min": [
        -1.0,
        -1.0,
        -1.0
      ],
      "type": "VEC3"
    },
    {
      "bufferView": 1,
      "byteOffset": 6536,
      "componentType": 5126,
      "count": 48,
      "max": [
        0.9682725667953491,
        0.9831149578094482
      ],
      "min": [
        0.05071552097797394,
        -2.2356855869293213
      ],
      "type": "VEC2"
    },
    {
      "bufferView": 0,
      "byteOffset": 14928,
      "componentType": 5125,
      "count": 84,
      "type": "SCALAR"
    }
  ],
  "asset": {
    "extras": {
      "author": "ivanovartem826 (https://sketchfab.com/ivanovartem826)",
      "license": "CC-BY-4.0 (http://creativecommons.org/licenses/by/4.0/)",
      "source": "https://sketchfab.com/3d-models/ps1-cctv-camera-d70a860c74f84fedb22d0c6e1d7d8574",
      "title": "PS1 CCTV Camera"
    },
    "generator": "Sketchfab-16.21.0",
    "version": "2.0"
  },
  "bufferViews": [
    {
      "buffer": 0,
      "byteLength": 15264,
      "name": "floatBufferViews",
      "target": 34963
    },
    {
      "buffer": 0,
      "byteLength": 6920,
      "byteOffset": 15264,
      "byteStride": 8,
      "name": "floatBufferViews",
      "target": 34962
    },
    {
      "buffer": 0,
      "byteLength": 20760,
      "byteOffset": 22184,
      "byteStride": 12,
      "name": "floatBufferViews",
      "target": 34962
    }
  ],
  "buffers": [
    {
      "byteLength": 42944,
      "uri": "scene.bin"
    }
  ],
  "images": [
    {
      "uri": "textures/Material.002_baseColor.png"
    }
  ],
  "materials": [
    {
      "doubleSided": true,
      "name": "Material.004",
      "pbrMetallicRoughness": {
        "baseColorFactor": [
          0.123509,
          0.123509,
          0.123509,
          1.0
        ],
        "metallicFactor": 0.0,
        "roughnessFactor": 0.5
      }
    },
    {
      "doubleSided": true,
      "name": "Material.002",
      "pbrMetallicRoughness": {
        "baseColorTexture": {
          "index": 0
        },
        "metallicFactor": 0.0,
        "roughnessFactor": 0.5
      }
    },
    {
      "doubleSided": true,
      "name": "Material.003",
      "pbrMetallicRoughness": {
        "baseColorFactor": [
          0.0206514,
          0.0181512,
          0.0580001,
          1.0
        ],
        "metallicFactor": 0.0,
        "roughnessFactor": 0.5
      }
    }
  ],
  "meshes": [
    {
      "name": "Object_0",
      "primitives": [
        {
          "attributes": {
            "NORMAL": 1,
            "POSITION": 0,
            "TEXCOORD_0": 2
          },
          "indices": 3,
          "material": 0,
          "mode": 4
        }
      ]
    },
    {
      "name": "Object_1",
      "primitives": [
        {
          "attributes": {
            "NORMAL": 5,
            "POSITION": 4,
            "TEXCOORD_0": 6
          },
          "indices": 7,
          "material": 1,
          "mode": 4
        }
      ]
    },
    {
      "name": "Object_2",
      "primitives": [
        {
          "attributes": {
            "NORMAL": 9,
            "POSITION": 8,
            "TEXCOORD_0": 10
          },
          "indices": 11,
          "material": 2,
          "mode": 4
        }
      ]
    },
    {
      "name": "Object_3",
      "primitives": [
        {
          "attributes": {
            "NORMAL": 13,
            "POSITION": 12,
            "TEXCOORD_0": 14
          },
          "indices": 15,
          "material": 1,
          "mode": 4
        }
      ]
    }
  ],
  "nodes": [
    {
      "children": [
        1
      ],
      "matrix": [
        1.0,
        0.0,
        0.0,
        0.0,
        0.0,
        2.220446049250313e-16,
        -1.0,
        0.0,
        0.0,
        1.0,
        2.220446049250313e-16,
        0.0,
        0.0,
        0.0,
        0.0,
        1.0
      ],
      "name": "Sketchfab_model"
    },
    {
      "children": [
        2
      ],
      "name": "root"
    },
    {
      "children": [
        3,
        5,
        8
      ],
      "matrix": [
        1.0,
        0.0,
        0.0,
        0.0,
        0.0,
        2.220446049250313e-16,
        1.0,
        0.0,
        0.0,
        -1.0,
        2.220446049250313e-16,
        0.0,
        0.0,
        0.0,
        0.0,
        1.0
      ],
      "name": "GLTF_SceneRootNode"
    },
    {
      "children": [
        4
      ],
      "matrix": [
        1.0,
        0.0,
        0.0,
        0.0,
        0.0,
        1.0,
        0.0,
        0.0,
        0.0,
        0.0,
        1.0,
        0.0,
        0.7398030757904053,
        0.07643000036478043,
        0.0,
        1.0
      ],
      "name": "NurbsPath.001_0"
    },
    {
      "mesh": 0,
      "name": "Object_4"
    },
    {
      "children": [
        6,
        7
      ],
      "matrix": [
        2.3451040356485317e-07,
        0.6533417778160583,
        -0.27732707853635125,
        0.0,
        -0.7097645998000696,
        2.3451040356485317e-07,
        -4.77116725233194e-08,
        0.0,
        4.77116725233194e-08,
        0.27732707853635125,
        0.6533417778160986,
        0.0,
        0.0,
        0.0,
        0.0,
        1.0
      ],
      "name": "Cylinder.001_1"
    },
    {
      "mesh": 1,
      "name": "Object_6"
    },
    {
      "mesh": 2,
      "name": "Object_7"
    },
    {
      "children": [
        9
      ],
      "matrix": [
        1.9549302429115548e-07,
        -0.5797972679137854,
        -0.0,
        0.0,
        0.5797972679137854,
        1.9549302429115548e-07,
        0.0,
        0.0,
        0.0,
        0.0,
        0.5797972679138184,
        0.0,
        0.0,
        0.939651608467102,
        0.0,
        1.0
      ],
      "name": "Cube.003_2"
    },
    {
      "mesh": 3,
      "name": "Object_9"
    }
  ],
  "samplers": [
    {
      "magFilter": 9729,
      "minFilter": 9987,
      "wrapS": 10497,
      "wrapT": 10497
    }
  ],
  "scene": 0,
  "scenes": [
    {
      "name": "Sketchfab_Scene",
      "nodes": [
        0
      ]
    }
  ],
  "textures": [
    {
      "sampler": 0,
      "source": 0
    }
  ]
}
